<svg width="16" height="16" viewBox="0 0 16 16" fill="none" xmlns="http://www.w3.org/2000/svg">
<path d="M14.0939 11.6875C13.5977 11.1875 12.3958 10.4578 11.8127 10.1638C11.0533 9.78125 10.9908 9.75 10.3939 10.1934C9.9958 10.4894 9.73112 10.7538 9.26518 10.6544C8.79924 10.555 7.78674 9.99469 6.90018 9.11094C6.01362 8.22719 5.4208 7.18531 5.32112 6.72094C5.22143 6.25656 5.49018 5.995 5.7833 5.59594C6.19643 5.03344 6.16518 4.93969 5.81205 4.18031C5.53674 3.58969 4.7858 2.39906 4.28393 1.90531C3.74705 1.375 3.74705 1.46875 3.40112 1.6125C3.11947 1.73097 2.84928 1.87501 2.59393 2.04281C2.09393 2.375 1.81643 2.65094 1.62237 3.06563C1.4283 3.48031 1.34112 4.4525 2.3433 6.27313C3.34549 8.09375 4.04862 9.02469 5.50393 10.4759C6.95924 11.9272 8.0783 12.7075 9.71424 13.625C11.738 14.7584 12.5142 14.5375 12.9302 14.3438C13.3461 14.15 13.6233 13.875 13.9561 13.375C14.1243 13.1201 14.2687 12.8502 14.3874 12.5688C14.5314 12.2241 14.6252 12.2241 14.0939 11.6875Z" stroke="white" stroke-miterlimit="10"/>
</svg>
