<svg width="128" height="128" viewBox="0 0 128 128" fill="none" xmlns="http://www.w3.org/2000/svg">
<g filter="url(#filter0_d_66_91)">
<path fill-rule="evenodd" clip-rule="evenodd" d="M80.0002 10.6667C84.3336 10.6664 88.5643 11.9858 92.1293 14.4493C95.6943 16.9128 98.4246 20.4035 99.9568 24.4569C101.489 28.5104 101.75 32.9343 100.706 37.14C99.6623 41.3457 97.3622 45.1338 94.1122 48C98.0874 51.4977 100.62 56.3487 101.217 61.6098C101.814 66.8709 100.434 72.1661 97.3438 76.4658C94.2538 80.7656 89.6753 83.7626 84.4984 84.8741C79.3215 85.9857 73.9162 85.1323 69.3335 82.48V96C69.3333 99.5647 68.4399 103.073 66.7348 106.203C65.0297 109.334 62.5673 111.987 59.5727 113.921C56.578 115.854 53.1465 117.007 49.5917 117.273C46.0369 117.539 42.4722 116.91 39.2231 115.443C35.9741 113.976 33.1443 111.719 30.9924 108.877C28.8405 106.035 27.4351 102.699 26.9045 99.1742C26.3739 95.6492 26.7351 92.0474 27.955 88.6979C29.175 85.3485 31.2148 82.3581 33.8882 80C31.6184 77.9979 29.8006 75.5358 28.5556 72.7772C27.3105 70.0186 26.6667 67.0266 26.6669 64C26.6667 60.9734 27.3105 57.9815 28.5556 55.2228C29.8006 52.4642 31.6184 50.0021 33.8882 48C30.6382 45.1338 28.3381 41.3457 27.294 37.14C26.2499 32.9343 26.5114 28.5104 28.0436 24.4569C29.5758 20.4035 32.3061 16.9128 35.8711 14.4493C39.4361 11.9858 43.6668 10.6664 48.0002 10.6667H80.0002ZM58.6669 85.3334H48.0002C45.8905 85.3334 43.8282 85.9589 42.0741 87.131C40.32 88.3031 38.9528 89.969 38.1455 91.9181C37.3381 93.8671 37.1269 96.0118 37.5385 98.081C37.9501 100.15 38.966 102.051 40.4577 103.542C41.9495 105.034 43.8501 106.05 45.9192 106.462C47.9884 106.873 50.1331 106.662 52.0821 105.855C54.0312 105.047 55.6971 103.68 56.8692 101.926C58.0413 100.172 58.6669 98.1097 58.6669 96V85.3334ZM58.6669 53.3334H48.0002C45.1712 53.3334 42.4581 54.4572 40.4577 56.4575C38.4573 58.4579 37.3335 61.171 37.3335 64C37.3335 66.829 38.4573 69.5421 40.4577 71.5425C42.4581 73.5429 45.1712 74.6667 48.0002 74.6667H58.6669V53.3334ZM80.0002 53.3334C77.1712 53.3334 74.4581 54.4572 72.4577 56.4575C70.4573 58.4579 69.3335 61.171 69.3335 64C69.3335 66.829 70.4573 69.5421 72.4577 71.5425C74.4581 73.5429 77.1712 74.6667 80.0002 74.6667C82.8292 74.6667 85.5423 73.5429 87.5427 71.5425C89.543 69.5421 90.6669 66.829 90.6669 64C90.6669 61.171 89.543 58.4579 87.5427 56.4575C85.5423 54.4572 82.8292 53.3334 80.0002 53.3334ZM80.0002 21.3334H69.3335V42.6667H80.0002C82.7681 42.6791 85.4324 41.615 87.4303 39.6993C89.4282 37.7836 90.6032 35.1663 90.7071 32.4003C90.8109 29.6344 89.8355 26.9363 87.9869 24.8762C86.1383 22.8161 83.5612 21.5552 80.8002 21.36L80.0002 21.3334ZM58.6669 21.3334H48.0002C45.1712 21.3334 42.4581 22.4572 40.4577 24.4575C38.4573 26.4579 37.3335 29.171 37.3335 32C37.3335 34.829 38.4573 37.5421 40.4577 39.5425C42.4581 41.5429 45.1712 42.6667 48.0002 42.6667H58.6669V21.3334Z" fill="#2C2C2C"/>
</g>
<defs>
<filter id="filter0_d_66_91" x="22.6655" y="10.6667" width="82.6875" height="114.665" filterUnits="userSpaceOnUse" color-interpolation-filters="sRGB">
<feFlood flood-opacity="0" result="BackgroundImageFix"/>
<feColorMatrix in="SourceAlpha" type="matrix" values="0 0 0 0 0 0 0 0 0 0 0 0 0 0 0 0 0 0 127 0" result="hardAlpha"/>
<feOffset dy="4"/>
<feGaussianBlur stdDeviation="2"/>
<feComposite in2="hardAlpha" operator="out"/>
<feColorMatrix type="matrix" values="0 0 0 0 0 0 0 0 0 0 0 0 0 0 0 0 0 0 0.25 0"/>
<feBlend mode="normal" in2="BackgroundImageFix" result="effect1_dropShadow_66_91"/>
<feBlend mode="normal" in="SourceGraphic" in2="effect1_dropShadow_66_91" result="shape"/>
</filter>
</defs>
</svg>
