<svg width="128" height="128" viewBox="0 0 128 128" fill="none" xmlns="http://www.w3.org/2000/svg">
<g filter="url(#filter0_d_66_105)">
<path d="M64.684 74.8C62.76 75.684 60.652 76.836 56.432 79.152C54.832 80.052 53.16 80.952 51.604 81.8C51.496 81.692 51.384 81.556 51.276 81.444C42.928 72.524 27.488 66.224 28.144 54.244C28.388 49.88 29.888 38.424 57.796 24.512C80.764 13.192 99.04 16.328 102.196 23.284C106.732 33.2 92.4 51.652 68.68 54.328C66.0548 54.8602 63.3435 54.7957 60.7465 54.1394C58.1495 53.4831 55.7332 52.2516 53.676 50.536C52.42 49.172 52.232 49.092 51.768 49.364C51.004 49.764 51.496 51 51.768 51.708C52.6728 53.3462 53.8969 54.7863 55.3678 55.9433C56.8388 57.1003 58.5268 57.9506 60.332 58.444C69.6665 60.4616 79.3988 59.4976 88.156 55.688C102.532 50.124 113.756 34.656 110.468 21.688C107.168 8.54001 85.344 4.20401 64.696 11.54C51.7651 15.8976 39.8181 22.7572 29.536 31.728C18.16 42.368 16.36 51.616 17.096 55.488C19.744 69.236 38.696 78.184 46.296 84.812C45.9014 85.0253 45.556 85.216 45.26 85.384C41.468 87.268 27.012 94.824 23.408 102.816C19.316 111.872 24.064 118.364 27.2 119.236C31.926 120.369 36.8879 119.998 41.3924 118.173C45.8968 116.349 49.7188 113.163 52.324 109.06C54.5371 105.659 55.8961 101.773 56.2854 97.734C56.6747 93.6948 56.0828 89.6214 54.56 85.86C55.4581 85.1429 56.4163 84.5045 57.424 83.952C59.36 82.808 61.204 81.68 62.84 80.808C68.4426 78.1874 74.5549 76.8365 80.74 76.852C93.724 78.38 96.288 86.48 95.796 89.892C95.5651 91.1023 95.078 92.2492 94.3674 93.2558C93.6568 94.2623 92.7392 95.1053 91.676 95.728C90.776 96.3 90.476 96.492 90.556 96.9C90.664 97.5 91.1 97.472 91.864 97.364C93.8148 96.7475 95.5334 95.5553 96.7942 93.944C98.0549 92.3327 98.7988 90.3778 98.928 88.336C99.328 80.336 91.7 71.56 78.196 71.64C74.153 71.6518 70.1508 72.4492 66.412 73.988C65.812 74.236 65.2294 74.5027 64.664 74.788L64.684 74.8ZM45.384 106.156C41.072 110.848 35.072 112.62 32.48 111.12C29.68 109.52 30.788 102.58 36.08 97.616C39.2117 94.7888 42.5996 92.2593 46.2 90.06C46.828 89.66 47.756 89.132 48.872 88.46L49.172 88.296L49.828 87.896C50.771 91.0605 50.8565 94.4187 50.0756 97.627C49.2948 100.835 47.6757 103.779 45.384 106.156Z" fill="#2C2C2C"/>
</g>
<defs>
<filter id="filter0_d_66_105" x="12.9526" y="7.98761" width="102.092" height="119.891" filterUnits="userSpaceOnUse" color-interpolation-filters="sRGB">
<feFlood flood-opacity="0" result="BackgroundImageFix"/>
<feColorMatrix in="SourceAlpha" type="matrix" values="0 0 0 0 0 0 0 0 0 0 0 0 0 0 0 0 0 0 127 0" result="hardAlpha"/>
<feOffset dy="4"/>
<feGaussianBlur stdDeviation="2"/>
<feComposite in2="hardAlpha" operator="out"/>
<feColorMatrix type="matrix" values="0 0 0 0 0 0 0 0 0 0 0 0 0 0 0 0 0 0 0.25 0"/>
<feBlend mode="normal" in2="BackgroundImageFix" result="effect1_dropShadow_66_105"/>
<feBlend mode="normal" in="SourceGraphic" in2="effect1_dropShadow_66_105" result="shape"/>
</filter>
</defs>
</svg>
