<svg width="100" height="100" viewBox="0 0 100 100" fill="none" xmlns="http://www.w3.org/2000/svg">
<path d="M16.6668 83.3333C14.3752 83.3333 12.4141 82.518 10.7835 80.8875C9.15294 79.2569 8.33627 77.2944 8.3335 75V25C8.3335 22.7083 9.15016 20.7472 10.7835 19.1167C12.4168 17.4861 14.3779 16.6694 16.6668 16.6667H83.3335C85.6252 16.6667 87.5877 17.4833 89.221 19.1167C90.8543 20.75 91.6696 22.7111 91.6668 25V75C91.6668 77.2917 90.8516 79.2542 89.221 80.8875C87.5904 82.5208 85.6279 83.3361 83.3335 83.3333H16.6668ZM50.0002 54.1667L16.6668 33.3333V75H83.3335V33.3333L50.0002 54.1667ZM50.0002 45.8333L83.3335 25H16.6668L50.0002 45.8333ZM16.6668 33.3333V25V75V33.3333Z" fill="white"/>
</svg>
