<svg width="64" height="64" viewBox="0 0 64 64" fill="none" xmlns="http://www.w3.org/2000/svg">
<path d="M10.6665 24V18.6666H15.9998V24H10.6665ZM10.6665 45.3333V29.3333H15.9998V45.3333H10.6665ZM29.3332 45.3333H23.9998C22.5332 45.3333 21.2781 44.8115 20.2345 43.768C19.1909 42.7244 18.6683 41.4684 18.6665 40V24C18.6665 22.5333 19.1892 21.2782 20.2345 20.2346C21.2798 19.1911 22.5349 18.6684 23.9998 18.6666H29.3332C30.7998 18.6666 32.0558 19.1893 33.1012 20.2346C34.1465 21.28 34.6683 22.5351 34.6665 24V40C34.6665 41.4666 34.1447 42.7226 33.1012 43.768C32.0576 44.8133 30.8016 45.3351 29.3332 45.3333ZM23.9998 40H29.3332V24H23.9998V40ZM37.3332 45.3333V40H47.9998V34.6666H42.6665C41.1998 34.6666 39.9447 34.1448 38.9012 33.1013C37.8576 32.0577 37.3349 30.8017 37.3332 29.3333V24C37.3332 22.5333 37.8558 21.2782 38.9012 20.2346C39.9465 19.1911 41.2016 18.6684 42.6665 18.6666H53.3332V24H42.6665V29.3333H47.9998C49.4665 29.3333 50.7225 29.856 51.7678 30.9013C52.8132 31.9466 53.3349 33.2017 53.3332 34.6666V40C53.3332 41.4666 52.8114 42.7226 51.7678 43.768C50.7243 44.8133 49.4683 45.3351 47.9998 45.3333H37.3332Z" fill="#B0B0B0"/>
</svg>
