<svg width="64" height="64" viewBox="0 0 64 64" fill="none" xmlns="http://www.w3.org/2000/svg">
<g clip-path="url(#clip0_68_144)">
<path d="M43.4666 0C44.0372 3.89333 42.4586 7.70667 40.3732 10.4C38.1466 13.28 34.3199 15.52 30.6132 15.4133C29.9359 11.68 31.6746 7.86667 33.7866 5.28C36.1039 2.42667 40.0799 0.266667 43.4666 0.0266667V0ZM44.7999 16C49.0399 16 53.5199 18.3307 56.7199 22.3467C46.2399 28.1333 47.9466 43.2533 58.5332 47.3067C57.4319 49.9627 56.0826 52.5067 54.5066 54.9067C51.8879 58.9333 48.1866 63.9467 43.6266 64C41.7439 64.0187 40.5066 63.448 39.1732 62.832C37.6292 62.12 35.9466 61.3467 32.9866 61.3627C30.0532 61.376 28.3466 62.1413 26.7732 62.8453C25.4079 63.4587 24.1492 64.0267 22.2666 64.008C17.6799 63.968 14.1866 59.448 11.5732 55.4213C4.23989 44.168 3.49322 30.9413 7.99989 23.9547C11.1999 18.968 16.2666 16.0347 21.0399 16.0347C23.5786 16.0347 25.6266 16.7707 27.5732 17.472C29.3439 18.1093 31.0399 18.7173 32.9332 18.7173C34.6986 18.7173 36.1599 18.1627 37.7332 17.5573C39.6372 16.8293 41.7332 16.0293 44.7999 16.0293V16Z" fill="#B0B0B0"/>
</g>
<defs>
<clipPath id="clip0_68_144">
<rect width="64" height="64" fill="white"/>
</clipPath>
</defs>
</svg>
