<svg width="64" height="64" viewBox="0 0 64 64" fill="none" xmlns="http://www.w3.org/2000/svg">
<g clip-path="url(#clip0_68_137)">
<path fill-rule="evenodd" clip-rule="evenodd" d="M25.9522 6.41371C20.6683 7.66898 15.9019 10.5273 12.3059 14.5972C8.70989 18.667 6.4603 23.7492 5.86532 29.1474H18.1442C18.9807 21.056 21.6596 13.2846 25.9522 6.41371ZM38.0482 6.41371C42.3567 13.2941 45.0279 21.0718 45.8562 29.1474H58.135C57.5401 23.7492 55.2905 18.667 51.6945 14.5972C48.0985 10.5273 43.332 7.66898 38.0482 6.41371ZM40.1053 29.1474C39.2071 21.415 36.4239 14.0214 32.0002 7.616C27.5765 14.0214 24.7933 21.415 23.895 29.1474H40.1053ZM23.895 34.8617H40.1053C39.2071 42.5942 36.4239 49.9878 32.0002 56.3931C27.5765 49.9878 24.7933 42.5942 23.895 34.8617ZM18.1442 34.8617H5.86532C6.4603 40.2599 8.70989 45.3421 12.3059 49.412C15.9019 53.4818 20.6683 56.3402 25.9522 57.5954C21.6437 50.7151 18.9724 42.9374 18.1442 34.8617ZM38.0482 57.5954C42.3567 50.7151 45.0279 42.9374 45.8562 34.8617H58.135C57.5401 40.2599 55.2905 45.3421 51.6945 49.412C48.0985 53.4818 43.332 56.3402 38.0482 57.5954ZM32.0002 64.0091C36.2031 64.0091 40.3648 63.1813 44.2478 61.5729C48.1308 59.9646 51.6589 57.6071 54.6308 54.6352C57.6027 51.6633 59.9602 48.1352 61.5685 44.2522C63.1769 40.3692 64.0047 36.2075 64.0047 32.0046C64.0047 27.8017 63.1769 23.6399 61.5685 19.757C59.9602 15.874 57.6027 12.3458 54.6308 9.37392C51.6589 6.40202 48.1308 4.04458 44.2478 2.4362C40.3648 0.827822 36.2031 -6.26281e-08 32.0002 0C23.512 1.26483e-07 15.3715 3.3719 9.36953 9.37392C3.36751 15.3759 -0.00439453 23.5164 -0.00439453 32.0046C-0.00439453 40.4927 3.36751 48.6332 9.36953 54.6352C15.3715 60.6372 23.512 64.0091 32.0002 64.0091Z" fill="#B0B0B0"/>
</g>
<defs>
<clipPath id="clip0_68_137">
<rect width="64" height="64" fill="white"/>
</clipPath>
</defs>
</svg>
