<svg width="64" height="64" viewBox="0 0 64 64" fill="none" xmlns="http://www.w3.org/2000/svg">
<path d="M29.6399 12.4453C29.6399 12.7416 29.5816 13.035 29.4682 13.3087C29.3548 13.5824 29.1887 13.8311 28.9792 14.0406C28.7697 14.2501 28.521 14.4162 28.2473 14.5296C27.9736 14.643 27.6802 14.7013 27.3839 14.7013C27.0877 14.7013 26.7943 14.643 26.5206 14.5296C26.2469 14.4162 25.9982 14.2501 25.7887 14.0406C25.5792 13.8311 25.413 13.5824 25.2997 13.3087C25.1863 13.035 25.1279 12.7416 25.1279 12.4453C25.1279 11.847 25.3656 11.2732 25.7887 10.8501C26.2118 10.427 26.7856 10.1893 27.3839 10.1893C27.9823 10.1893 28.5561 10.427 28.9792 10.8501C29.4022 11.2732 29.6399 11.847 29.6399 12.4453ZM36.4106 14.7013C37.0089 14.7013 37.5827 14.4636 38.0058 14.0406C38.4289 13.6175 38.6666 13.0437 38.6666 12.4453C38.6666 11.847 38.4289 11.2732 38.0058 10.8501C37.5827 10.427 37.0089 10.1893 36.4106 10.1893C35.8123 10.1893 35.2384 10.427 34.8154 10.8501C34.3923 11.2732 34.1546 11.847 34.1546 12.4453C34.1546 13.0437 34.3923 13.6175 34.8154 14.0406C35.2384 14.4636 35.8123 14.7013 36.4106 14.7013Z" fill="#B0B0B0"/>
<path fill-rule="evenodd" clip-rule="evenodd" d="M16.9439 1.25335C17.1297 1.0675 17.3502 0.920067 17.5929 0.819478C17.8357 0.718888 18.0959 0.667114 18.3586 0.667114C18.6214 0.667114 18.8815 0.718888 19.1243 0.819478C19.367 0.920067 19.5875 1.0675 19.7733 1.25335L23.0479 4.52535C25.6403 2.97988 28.6032 2.16613 31.6213 2.17069H32.1733C35.3066 2.17069 38.2373 3.02935 40.7466 4.52535L44.0213 1.25335C44.4004 0.900074 44.9019 0.707745 45.42 0.716887C45.9381 0.726029 46.4325 0.935928 46.7989 1.30236C47.1654 1.6688 47.3753 2.16316 47.3844 2.68129C47.3935 3.19943 47.2012 3.70089 46.8479 4.08002L43.9386 6.99202C46.7896 9.79359 48.5426 13.5238 48.8799 17.5067C49.4542 17.3147 50.0613 17.2169 50.7013 17.2134C52.2289 17.2134 53.694 17.8202 54.7742 18.9004C55.8544 19.9806 56.4613 21.4457 56.4613 22.9734V36.512C56.4618 37.4195 56.2479 38.3143 55.837 39.1235C55.4261 39.9326 54.8299 40.6333 54.0968 41.1682C53.3637 41.7032 52.5146 42.0574 51.6187 42.202C50.7228 42.3465 49.8054 42.2773 48.9413 42V46.9734C48.9413 49.408 47.7546 51.5627 45.9306 52.8987V56.8187C45.9306 58.5458 45.2445 60.2021 44.0233 61.4234C42.802 62.6446 41.1457 63.3307 39.4186 63.3307C37.6915 63.3307 36.0352 62.6446 34.8139 61.4234C33.5927 60.2021 32.9066 58.5458 32.9066 56.8187V54.3067H30.8879V56.8214C30.8879 58.5484 30.2019 60.2048 28.9806 61.426C27.7594 62.6473 26.103 63.3334 24.3759 63.3334C22.6488 63.3334 20.9925 62.6473 19.7713 61.426C18.55 60.2048 17.8639 58.5484 17.8639 56.8214V52.8987C16.9314 52.2176 16.173 51.3259 15.6503 50.2963C15.1276 49.2666 14.8554 48.1281 14.8559 46.9734V42C13.9918 42.2773 13.0744 42.3465 12.1785 42.202C11.2826 42.0574 10.4335 41.7032 9.70042 41.1682C8.96736 40.6333 8.37108 39.9326 7.96018 39.1235C7.54928 38.3143 7.33539 37.4195 7.33594 36.512V22.9734C7.33573 22.0608 7.55234 21.1613 7.96793 20.3489C8.38351 19.5364 8.98618 18.8344 9.72627 18.3005C10.4664 17.7667 11.3227 17.4163 12.2248 17.2783C13.1268 17.1403 14.0487 17.2186 14.9146 17.5067C15.2519 13.5238 17.0049 9.79359 19.8559 6.99202L16.9439 4.08002C16.5694 3.70502 16.359 3.19669 16.359 2.66669C16.359 2.13669 16.5694 1.62835 16.9439 1.25335ZM19.5173 21.2134C19.3414 21.2148 19.1732 21.2856 19.0493 21.4105C18.9254 21.5354 18.8559 21.7041 18.8559 21.88V46.9734C18.8559 47.8551 19.2053 48.7009 19.8275 49.3257C20.4498 49.9504 21.2942 50.3032 22.1759 50.3067H41.6186C42.5004 50.3032 43.3448 49.9504 43.967 49.3257C44.5893 48.7009 44.9386 47.8551 44.9386 46.9734V21.88C44.9386 21.7041 44.8691 21.5354 44.7452 21.4105C44.6214 21.2856 44.4532 21.2148 44.2773 21.2134H19.5173ZM44.2826 17.2134H44.8239C44.4051 14.1552 42.893 11.3522 40.5674 9.32272C38.2418 7.2932 35.2599 6.17444 32.1733 6.17335H31.6213C28.5346 6.17444 25.5528 7.2932 23.2271 9.32272C20.9015 11.3522 19.3895 14.1552 18.9706 17.2134H44.2826ZM36.9066 56.8214V54.3067H41.9306V56.8214C41.9306 57.1512 41.8656 57.4779 41.7394 57.7827C41.6132 58.0874 41.4281 58.3643 41.1949 58.5976C40.9616 58.8309 40.6847 59.0159 40.3799 59.1421C40.0751 59.2684 39.7485 59.3334 39.4186 59.3334C39.0887 59.3334 38.7621 59.2684 38.4573 59.1421C38.1525 59.0159 37.8756 58.8309 37.6424 58.5976C37.4091 58.3643 37.2241 58.0874 37.0978 57.7827C36.9716 57.4779 36.9066 57.1512 36.9066 56.8214ZM22.1706 54.3067H26.8879V56.8214C26.8879 57.4876 26.6233 58.1265 26.1522 58.5976C25.6811 59.0687 25.0422 59.3334 24.3759 59.3334C23.7097 59.3334 23.0708 59.0687 22.5997 58.5976C22.1286 58.1265 21.8639 57.4876 21.8639 56.8214V54.3067H22.1706ZM50.7013 38.2747C50.2354 38.2747 49.7886 38.09 49.4586 37.7611C49.1287 37.4322 48.9427 36.9859 48.9413 36.52V22.9654C48.9423 22.4986 49.1288 22.0513 49.4596 21.722C49.6234 21.559 49.8177 21.4298 50.0314 21.3418C50.2452 21.2538 50.4741 21.2088 50.7053 21.2094C50.9364 21.2099 51.1652 21.2559 51.3785 21.3449C51.5918 21.4338 51.7856 21.5639 51.9486 21.7277C52.1117 21.8915 52.2409 22.0858 52.3288 22.2995C52.4168 22.5133 52.4618 22.7422 52.4613 22.9734V36.512C52.4613 36.9788 52.2758 37.4265 51.9458 37.7565C51.6157 38.0866 51.1681 38.2747 50.7013 38.2747ZM14.8533 22.96C14.8519 22.4932 14.6651 22.0461 14.334 21.7171C14.0029 21.388 13.5547 21.2039 13.0879 21.2054C12.6212 21.2068 12.1741 21.3936 11.845 21.7246C11.5159 22.0557 11.3319 22.5039 11.3333 22.9707V36.5094C11.3315 36.9761 11.5152 37.4245 11.844 37.7558C12.1729 38.0871 12.6198 38.2743 13.0866 38.276C13.5534 38.2778 14.0018 38.0941 14.3331 37.7652C14.6644 37.4364 14.8515 36.9895 14.8533 36.5227V22.96Z" fill="#B0B0B0"/>
</svg>
