<svg width="128" height="128" viewBox="0 0 128 128" fill="none" xmlns="http://www.w3.org/2000/svg">
<g clip-path="url(#clip0_66_99)">
<g filter="url(#filter0_d_66_99)">
<path fill-rule="evenodd" clip-rule="evenodd" d="M45.3547 15.6757C41.9413 14.6859 39.424 14.9504 37.5893 15.9488C35.7461 16.9387 34.1419 18.9099 33.1008 22.3061C32.0597 25.728 31.7099 30.2933 32.2133 35.8059C32.2987 36.699 32.4039 37.6121 32.5291 38.5451C37.238 37.3708 42.0142 36.4845 46.8309 35.8912C50.1149 31.238 53.7523 26.8445 57.7109 22.7499L57.1477 22.2976C52.8128 18.8672 48.7851 16.6656 45.3547 15.6757ZM64 16.8704C63.488 16.438 62.9703 16.0171 62.4469 15.6075C57.5659 11.7504 52.5653 8.87467 47.7355 7.4752C42.8715 6.0672 37.8965 6.0672 33.5189 8.448C29.1413 10.8288 26.4107 14.9931 24.9429 19.8315C23.4752 24.6443 23.1509 30.3957 23.7141 36.5995C23.845 38.0501 24.0299 39.5378 24.2688 41.0624C22.8124 41.5744 21.4187 42.1205 20.0875 42.7008C14.3616 45.1499 9.45493 48.1792 5.92213 51.7632C2.37227 55.3557 0 59.7333 0 64.7168C0 69.7003 2.37227 74.0693 5.92213 77.6789C9.45493 81.2629 14.3616 84.2837 20.0875 86.7413C21.4244 87.3102 22.8181 87.8564 24.2688 88.3797C24.0404 89.8617 23.8554 91.3499 23.7141 92.8427C23.1509 99.0379 23.4752 104.789 24.9429 109.611C26.4107 114.449 29.1413 118.622 33.5189 120.986C37.8965 123.358 42.88 123.366 47.7355 121.958C52.5653 120.55 57.5659 117.692 62.4469 113.826L64 112.555C64.512 112.987 65.0297 113.411 65.5531 113.826C70.4341 117.683 75.4347 120.55 80.2645 121.958C85.12 123.366 90.1035 123.358 94.4811 120.986C98.8587 118.622 101.589 114.449 103.057 109.611C104.525 104.798 104.849 99.0379 104.286 92.8427C104.145 91.3499 103.96 89.8617 103.731 88.3797C105.182 87.8677 106.576 87.3216 107.913 86.7413C113.638 84.2837 118.545 81.2544 122.078 77.6789C125.628 74.0779 128 69.6917 128 64.7083C128 59.7419 125.628 55.3557 122.078 51.7547C118.545 48.1707 113.638 45.1413 107.913 42.6923C106.535 42.1055 105.141 41.5591 103.731 41.0539C103.959 39.5292 104.144 38.0416 104.286 36.5909C104.849 30.3872 104.525 24.6443 103.057 19.8229C101.589 14.9845 98.8587 10.8117 94.4811 8.43947C90.1035 6.0672 85.12 6.0672 80.2645 7.4752C75.4347 8.87467 70.4341 11.7419 65.5531 15.6075L64 16.8704ZM64 28.5184C62.0772 30.4868 60.1657 32.6343 58.2656 34.9611C62.087 34.8099 65.913 34.8099 69.7344 34.9611C67.9227 32.7268 66.0092 30.577 64 28.5184ZM81.1691 35.8912C77.6704 30.9931 74.0011 26.5728 70.2891 22.7499L70.8437 22.2976C75.1957 18.8672 79.2064 16.6656 82.6453 15.6757C86.0501 14.6859 88.576 14.9504 90.4107 15.9488C92.2539 16.9387 93.8581 18.9099 94.8907 22.3061C95.9317 25.728 96.2901 30.2933 95.7867 35.8059C95.7013 36.7047 95.5961 37.6149 95.4709 38.5365C90.7618 37.3651 85.9857 36.4817 81.1691 35.8912ZM76.3648 43.9467C68.1395 43.1793 59.8605 43.1793 51.6352 43.9467C47.2399 50.519 43.439 57.4699 40.2773 64.7168C43.4407 71.9585 47.2386 78.9061 51.6267 85.4784C59.8577 86.2468 68.1423 86.2468 76.3733 85.4784C80.7652 78.9085 84.5633 71.9605 87.7227 64.7168C84.5597 57.4722 80.7533 50.5217 76.3648 43.9467ZM91.9381 53.6576C90.5268 50.8909 89.027 48.1702 87.4411 45.4997C89.6597 45.9264 91.7988 46.4043 93.8581 46.9333C93.3234 49.1236 92.6834 51.365 91.9381 53.6576ZM91.9381 75.7675C90.527 78.5371 89.0272 81.2606 87.4411 83.9339C89.6597 83.5072 91.7988 83.0265 93.8581 82.4917C93.2949 80.2291 92.6545 77.9864 91.9381 75.7675ZM102.007 79.9232C100.677 74.7479 99.0006 69.6677 96.9899 64.7168C99.0891 59.5115 100.77 54.4 102.007 49.5104C102.884 49.8404 103.737 50.1817 104.567 50.5344C109.653 52.7189 113.502 55.2021 116.011 57.7451C118.502 60.2709 119.475 62.6261 119.475 64.7168C119.475 66.8075 118.502 69.1541 116.011 71.68C113.502 74.2315 109.653 76.7147 104.567 78.8992C103.721 79.2577 102.868 79.5991 102.007 79.9232ZM95.4795 90.8885C90.7705 92.0628 85.9944 92.9491 81.1776 93.5424C77.6789 98.4405 74.0096 102.852 70.2976 106.684L70.8608 107.127C75.1957 110.566 79.2235 112.759 82.6539 113.758C86.0587 114.748 88.5845 114.483 90.4192 113.485C92.2539 112.486 93.8667 110.515 94.8992 107.119C95.9488 103.706 96.2987 99.1317 95.7952 93.6192C95.7109 92.7067 95.6057 91.7962 95.4795 90.8885ZM64 100.915C65.9229 98.9469 67.8343 96.7993 69.7344 94.4725C65.913 94.6237 62.087 94.6237 58.2656 94.4725C60.1657 96.7936 62.0772 98.9412 64 100.915ZM40.5675 83.9339C38.9813 81.2606 37.4815 78.5371 36.0704 75.7675C35.3308 78.0658 34.6908 80.3072 34.1504 82.4917C36.2041 83.0265 38.3431 83.5072 40.5675 83.9339ZM32.5291 90.8885C37.238 92.0628 42.0142 92.9491 46.8309 93.5424C50.3296 98.4405 53.9904 102.852 57.7109 106.684L57.1477 107.127C52.8128 110.566 48.7851 112.759 45.3547 113.758C41.9413 114.748 39.424 114.483 37.5808 113.485C35.7376 112.486 34.1419 110.515 33.1008 107.119C32.0597 103.706 31.7099 99.1317 32.2133 93.6192C32.3002 92.707 32.4055 91.7966 32.5291 90.8885ZM26.0011 79.9232C27.2384 75.0251 28.9109 69.9221 31.0187 64.7168C29.0079 59.7659 27.3316 54.6857 26.0011 49.5104C25.1193 49.8404 24.266 50.1817 23.4411 50.5344C18.3552 52.7189 14.5067 55.2021 11.9979 57.7451C9.50613 60.2709 8.53333 62.6261 8.53333 64.7168C8.53333 66.8075 9.50613 69.1541 11.9979 71.68C14.5067 74.2315 18.3552 76.7147 23.4411 78.8992C24.2716 79.2462 25.125 79.5876 26.0011 79.9232ZM34.1504 46.9419C34.6852 49.1264 35.3252 51.365 36.0704 53.6576C37.4817 50.8909 38.9815 48.1702 40.5675 45.4997C38.3488 45.9264 36.2098 46.4071 34.1504 46.9419ZM51.2 64.7168C51.2 61.322 52.5486 58.0663 54.949 55.6658C57.3495 53.2654 60.6052 51.9168 64 51.9168C67.3948 51.9168 70.6505 53.2654 73.051 55.6658C75.4514 58.0663 76.8 61.322 76.8 64.7168C76.8 68.1116 75.4514 71.3673 73.051 73.7678C70.6505 76.1682 67.3948 77.5168 64 77.5168C60.6052 77.5168 57.3495 76.1682 54.949 73.7678C52.5486 71.3673 51.2 68.1116 51.2 64.7168ZM64 60.4501C62.8684 60.4501 61.7832 60.8997 60.983 61.6998C60.1829 62.5 59.7333 63.5852 59.7333 64.7168C59.7333 65.8484 60.1829 66.9336 60.983 67.7338C61.7832 68.5339 62.8684 68.9835 64 68.9835C65.1316 68.9835 66.2168 68.5339 67.017 67.7338C67.8171 66.9336 68.2667 65.8484 68.2667 64.7168C68.2667 63.5852 67.8171 62.5 67.017 61.6998C66.2168 60.8997 65.1316 60.4501 64 60.4501Z" fill="#2C2C2C"/>
</g>
</g>
<defs>
<filter id="filter0_d_66_99" x="-4" y="6.51642" width="136" height="124.397" filterUnits="userSpaceOnUse" color-interpolation-filters="sRGB">
<feFlood flood-opacity="0" result="BackgroundImageFix"/>
<feColorMatrix in="SourceAlpha" type="matrix" values="0 0 0 0 0 0 0 0 0 0 0 0 0 0 0 0 0 0 127 0" result="hardAlpha"/>
<feOffset dy="4"/>
<feGaussianBlur stdDeviation="2"/>
<feComposite in2="hardAlpha" operator="out"/>
<feColorMatrix type="matrix" values="0 0 0 0 0 0 0 0 0 0 0 0 0 0 0 0 0 0 0.25 0"/>
<feBlend mode="normal" in2="BackgroundImageFix" result="effect1_dropShadow_66_99"/>
<feBlend mode="normal" in="SourceGraphic" in2="effect1_dropShadow_66_99" result="shape"/>
</filter>
<clipPath id="clip0_66_99">
<rect width="128" height="128" fill="white"/>
</clipPath>
</defs>
</svg>
